<?xml version="1.0" encoding="utf-8"?>
<!-- Generator: Adobe Illustrator 24.1.2, SVG Export Plug-In . SVG Version: 6.00 Build 0)  -->
<svg version="1.1" id="Capa_1" xmlns="http://www.w3.org/2000/svg" xmlns:xlink="http://www.w3.org/1999/xlink" x="0px" y="0px"
	 viewBox="0 0 635 188" style="enable-background:new 0 0 635 188;" xml:space="preserve">
<style type="text/css">
	.st0{fill:#FBBF47;}
</style>
<path class="st0" d="M56.84,94.5v-38h7h7V62c0,4.8,0.2,5.5,2,5.5c1.8,0,2,0.7,2,5.4c0,3.2,0.5,5.6,1.1,5.8c0.7,0.2,1.1,2.5,1.1,5.6
	c-0.1,4.5,0.1,5.2,1.8,5.2c1.7,0,1.9-0.7,1.8-5.2c0-3.1,0.4-5.4,1.1-5.6c0.6-0.2,1.1-2.6,1.1-5.8c0-4.7,0.2-5.4,2-5.4
	c1.8,0,2-0.7,2-5.5v-5.5h7h7v38v38h-5.4c-4.4,0-5.6-0.4-5.9-1.7c-0.3-1-0.5-13.2-0.4-27.1c0.2-23.4,0.1-25.2-1.5-25.2
	c-1.6,0-1.8,1.2-1.8,11c0,8.7-0.3,11-1.4,11s-1.3,1.7-1.1,7.8c0.3,12.1,0,13.2-4.5,13.2s-4.8-1.1-4.5-13.2c0.2-6-0.1-7.8-1.1-7.8
	c-1.1,0-1.4-2.4-1.4-11c0-9.8-0.2-11-1.7-11c-1.7,0-1.8,1.8-1.6,25.2c0.1,13.9-0.1,26.1-0.4,27.1c-0.3,1.3-1.5,1.7-5.9,1.7h-5.4
	V94.5z"/>
<path class="st0" d="M123.84,127v-5.5h-3.5h-3.5V100V78.5h5.4c4.4,0,5.6,0.4,6,1.8c0.2,0.9,0.4,8.1,0.3,16
	c-0.2,12.9,0,14.2,1.5,14.2c2.1,0,3.2,3.7,2.6,8l-0.5,3h6.9h6.8v5.5v5.5h-11h-11V127z"/>
<path class="st0" d="M149.24,130c-0.3-1.4-0.4-3.9,0-5.5c0.4-2.5,0.2-3-1.3-3c-2.1,0-3.1-1.9-3.1-5.5c0-3.5,1-5.5,2.9-5.5
	c1.4,0,1.6-1.6,1.4-14.2c-0.1-7.9,0.1-15.1,0.3-16c0.4-1.4,1.6-1.8,6-1.8h5.4v27v27h-5.5C150.34,132.5,149.84,132.3,149.24,130z"/>
<path class="st0" d="M182.44,130.9c-0.3-0.9-0.6-2.6-0.6-3.9c0-4.7,0.9-5.5,6.1-5.5h4.9v-5c0.1-2.7,0.1-12.6,0.1-22
	c0-9.3,0-19.2-0.1-21.9v-5l-3.7-0.3l-3.8-0.3l-0.3-5.3l-0.3-5.3l9.8,0.3l9.8,0.3l0.2,27c0.1,14.9,0.2,29.4,0.3,32.3v5.2h4.9
	c5.2,0,6.1,0.8,6.1,5.5c0,5.5,0,5.5-17,5.5C185.34,132.5,182.94,132.3,182.44,130.9z"/>
<path class="st0" d="M253.54,131.8c-0.4-0.3-0.7-2.8-0.7-5.5c0-4.5-0.2-4.8-2.5-4.8h-2.5v-16v-16h-5.5h-5.5V84v-5.5h5.5h5.5v-11v-11
	h5.5c6.3,0,5.7-1.3,5.6,13.3v8.7h7.8c8.4,0,9.1,0.4,9.1,5.5s-0.7,5.5-9,5.5h-7.7l-0.1,16v16h7.8c8.3,0,9,0.4,9,5.5
	c0,5.3-0.5,5.5-11.4,5.5C258.74,132.5,253.84,132.2,253.54,131.8z"/>
<path class="st0" d="M302.44,130.9c-0.3-0.9-0.6-2.6-0.6-3.9c0-4.7,0.9-5.5,6.1-5.5h4.9l0.1-5c0-2.7,0-7.7,0-11s0-8.2,0-10.9l-0.1-5
	l-3.7-0.3l-3.8-0.3l-0.3-5.3l-0.3-5.3l9.8,0.3l9.8,0.3l0.2,16c0.1,8.8,0.2,18.4,0.2,21.3l0.1,5.2h4.9c5.2,0,6.1,0.8,6.1,5.5
	c0,5.5,0,5.5-17,5.5C305.34,132.5,302.94,132.3,302.44,130.9z"/>
<path class="st0" d="M356.84,94.5v-38h19h19l0.6,2.5c0.3,1.4,0.4,3.9,0,5.5c-0.5,2.8-0.3,3,2.4,3h3v11v11h-3c-2.7,0-2.9,0.2-2.4,3
	c0.4,1.6,0.3,4.1,0,5.5l-0.6,2.5h-13.3h-13.2l0.2,14.2c0.1,7.9-0.1,15.1-0.3,16.1c-0.4,1.3-1.6,1.7-6,1.7h-5.4V94.5z M389.34,78.5
	v-11h-10.5h-10.5v11v11h10.5h10.5V78.5z"/>
<path class="st0" d="M422.24,130c-0.3-1.4-0.4-3.9,0-5.5c0.5-2.8,0.3-3-2.4-3c-3,0-3-0.1-3-5.5s0-5.5,3-5.5c2.7,0,2.9-0.2,2.4-3
	c-0.4-1.6-0.3-4.1,0-5.5c0.6-2.5,0.7-2.5,11.1-2.5h10.5v-5v-4.9l-9.2-0.3l-9.3-0.3l-0.3-5.2l-0.3-5.3h12.5h12.6v5.4
	c0,5.2,0.1,5.5,2.8,5.8l2.7,0.3v15.8v15.7h2.8c2.6,0,2.7,0.2,2.7,5.5v5.5h-5.5c-5,0-5.5-0.2-6.1-2.5c-0.3-1.4-0.4-3.9,0-5.5
	c0.5-2.8,0.3-3-2.4-3c-3,0-3-0.1-3-5.5v-5.5h-7.7h-7.8v5.5v5.4l8,0.3l8,0.3v5v5l-10.7,0.3l-10.7,0.3L422.24,130z"/>
<path class="st0" d="M482.44,130.9c-0.3-0.9-0.6-2.6-0.6-3.9c0-5.4,0.3-5.5,13.1-5.5h11.9V116v-5.5h-11h-11V105
	c0-5.2-0.1-5.5-2.5-5.5c-2.3,0-2.5-0.3-2.5-5s0.2-5,2.5-5c2.4,0,2.5-0.3,2.5-5.5v-5.5h14.9c16,0,16.1,0,16.1,5.5
	c0,5.4-0.3,5.5-13.1,5.5h-11.9v5v4.9l10.8,0.3l10.7,0.3l0.3,5.3c0.3,4.8,0.5,5.2,2.8,5.2s2.4,0.3,2.4,5.5s-0.1,5.5-2.5,5.5
	c-2.4,0-2.5,0.3-2.5,5.5v5.5h-14.9C485.24,132.5,482.94,132.3,482.44,130.9z"/>
<path class="st0" d="M542.44,130.9c-0.3-0.9-0.6-2.6-0.6-3.9c0-5.4,0.3-5.5,13.1-5.5h11.9V116v-5.5h-11h-11V105
	c0-5.2-0.1-5.5-2.5-5.5c-2.3,0-2.5-0.3-2.5-5s0.2-5,2.5-5c2.4,0,2.5-0.3,2.5-5.5v-5.5h14.9c16,0,16.1,0,16.1,5.5
	c0,5.4-0.3,5.5-13.1,5.5h-11.9v5v4.9l10.8,0.3l10.7,0.3l0.3,5.3c0.3,4.8,0.5,5.2,2.8,5.2s2.4,0.3,2.4,5.5s-0.1,5.5-2.5,5.5
	c-2.4,0-2.5,0.3-2.5,5.5v5.5h-14.9C545.24,132.5,542.94,132.3,542.44,130.9z"/>
<path class="st0" d="M313.54,66.9c-0.4-0.4-0.7-2.9-0.7-5.6v-4.9l5.8,0.3l5.7,0.3v5v5l-5,0.3C316.54,67.5,313.94,67.3,313.54,66.9z"
	/>
</svg>
