<?xml version="1.0" encoding="utf-8"?>
<!-- Generator: Adobe Illustrator 24.1.2, SVG Export Plug-In . SVG Version: 6.00 Build 0)  -->
<svg version="1.1" xmlns="http://www.w3.org/2000/svg" xmlns:xlink="http://www.w3.org/1999/xlink" x="0px" y="0px"
	 viewBox="0 0 238.75 194.82" style="enable-background:new 0 0 238.75 194.82;" xml:space="preserve">
<style type="text/css">
	.st0{fill:#343A40;}
	.st1{fill:#E0A800;stroke:#E0A800;stroke-width:2;stroke-linejoin:round;stroke-miterlimit:10;}
</style>
<g id="Capa_1">
	<path class="st0" d="M48.97,194.61c-4.43-0.31-8.44-1.1-12.73-2.57c-20.01-6.78-33.88-24.24-35.92-45.25
		c-0.4-4.07-0.43-95.25-0.03-99.01c0.99-9.35,4.35-18.14,9.86-25.82c1.96-2.74,6.54-7.54,9.35-9.83
		C27.74,5.43,37.72,1.34,48.29,0.29c4.15-0.4,137.7-0.4,142.14,0.03c3.35,0.31,7.42,1.13,11.65,2.4c3.07,0.9,9.66,4.1,12.76,6.19
		c13.44,8.98,22.03,23.28,23.59,39.24c0.43,4.24,0.43,93.7,0,98.19c-0.99,10.79-4.92,20.48-11.65,28.81
		c-7.22,8.9-17.62,15.48-28.65,18.08c-6.93,1.64-1.28,1.53-76.62,1.58C83.53,194.84,50.88,194.75,48.97,194.61z"/>
</g>
<g id="Capa_2">
	<g>
		<path class="st1" d="M100.6,183.15c-16-3.6-29.7-10.9-41.2-21.9c-9.3-8.7-15.1-16.8-20.2-27.8c-6.2-13.2-7.6-20.1-7.5-36.8
			c0.1-12.8,0.4-15.5,2.8-23.4c6.2-20.6,17-35.8,34.3-48.2c32.8-23.7,80.3-20.3,110,7.9c12.6,11.9,20,23.9,24.9,40.4
			c2.4,7.8,2.7,10.5,2.7,23.3c0,11.8-0.4,16-2.2,22.5c-4.5,16.6-12.8,30.3-25.5,42.2c-9.6,9-19.2,14.7-31.9,19.1
			c-9.7,3.4-11,3.6-25.2,3.8C111.5,184.45,104.6,184.15,100.6,183.15z M141.1,176.65c9.1-2.6,22-9.3,29.9-15.5
			c14.3-11.2,25.7-30.2,29.2-48.5c1.9-10,1.4-26.1-1.1-35.5c-6.7-26-24.8-46.7-49.3-56.5c-26.2-10.5-54.7-7.2-78.1,9
			c-16.1,11.1-27.3,27.4-32.7,47.5c-3,11.1-3,28.8,0,40c8.2,31,32.1,53.9,63.6,60.9C112.4,180.25,131,179.55,141.1,176.65z"/>
		<path class="st1" d="M116.5,162.25c-0.3-0.8-0.4-3.1-0.2-5.2c0.5-6.5,5.7-5.8,5.8,0.8c0,1.4-0.3,3.3-0.6,4.2
			C120.7,164.05,117.2,164.15,116.5,162.25z"/>
		<path class="st1" d="M100.2,160.25c-1.9-2.3,0.8-9,3.8-9.4c2.3-0.4,2.4-0.2,1.7,3.9C104.7,160.95,102.6,163.15,100.2,160.25z"/>
		<path class="st1" d="M133.7,160.85c-0.3-0.5-0.8-2.8-1.2-5c-0.5-3.4-0.3-4.3,1-4.8c2.6-1,3.9,1,4,5.8c0.1,3.2-0.3,4.3-1.6,4.6
			C135,161.65,134,161.35,133.7,160.85z"/>
		<path class="st1" d="M84.1,152.65c0-3.5,2.9-8,5.1-8c3,0,3.4,2.5,0.9,6.5C87.7,155.05,84.1,155.95,84.1,152.65z"/>
		<path class="st1" d="M71.3,143.45c-1.8-1.8-1.4-3.2,1.6-6.1c3.2-3.1,5.7-3.5,6.6-1C80.7,139.35,73.4,145.55,71.3,143.45z"/>
		<path class="st1" d="M112.8,129.65c-11.1-1.9-22.1-11.8-25.3-22.7c-3.5-12,0.1-26,8.8-33.8c6.7-6.1,14-8.9,23-8.9
			c6.5,0,8.6,0.5,14.2,3.3c7.1,3.5,12.2,8.6,15.8,16c1.9,3.7,2.3,6.3,2.3,13.6c0,8.3-0.3,9.5-3.4,15.3c-3.4,6.3-8.7,11.5-14.6,14.5
			c-2.6,1.3-13.8,3.9-15.4,3.6C117.9,130.45,115.4,130.05,112.8,129.65z M128.4,123.05c14.6-5,22.3-22.8,15.9-36.9
			c-4.6-10.1-12.5-15.6-23.6-16.3c-5.8-0.3-8.2,0-11.7,1.5c-19.5,8.6-23.6,33.2-7.8,46.6C108.6,124.35,118.9,126.25,128.4,123.05z"
			/>
		<path class="st1" d="M110.6,116.25c-15.5-7.1-16.6-28.6-2-37.2c10.2-5.9,23.5-1.8,29.3,9.1c2.5,4.7,2.2,14.1-0.7,19.2
			c-3.8,6.6-9,9.7-17,10C116.1,117.55,112.5,117.15,110.6,116.25z M126.5,110.35c9.8-5.5,10.6-19.3,1.5-25.8
			c-4.8-3.4-12.4-3.7-16.9-0.7c-4.8,3.2-8.3,10.5-7.4,15.2C105.7,110.15,117,115.75,126.5,110.35z"/>
		<path class="st1" d="M114.4,100.05c-1.5-2.4-1.5-2.9-0.2-5.3c1.1-2,2.2-2.6,4.9-2.6c2.7,0,3.8,0.6,4.9,2.6
			c1.3,2.4,1.3,2.9-0.2,5.3c-1.2,1.8-2.6,2.6-4.7,2.6C117,102.65,115.6,101.85,114.4,100.05z"/>
		<path class="st1" d="M143.9,37.95c-2.5-1-3.8-2.2-3.8-3.5c0-2.9,2.4-3.2,7.5-0.9c3.4,1.5,4.6,2.5,4.3,3.8
			C151.5,39.65,148.5,39.85,143.9,37.95z"/>
		<path class="st1" d="M93.5,35.15c-0.9-2.3,0.6-3.5,6.8-5.2c6.3-1.7,23.1-2.8,28.3-1.9c3,0.6,3.6,1.1,3.3,2.9
			c-0.3,2.1-0.7,2.2-8.8,1.9c-5.5-0.2-11.2,0.2-16,1.3C94.5,37.05,94.2,37.05,93.5,35.15z"/>
	</g>
</g>
</svg>
